<?xml version="1.0" standalone="no"?><!DOCTYPE svg PUBLIC "-//W3C//DTD SVG 1.1//EN" "http://www.w3.org/Graphics/SVG/1.1/DTD/svg11.dtd"><svg t="1691560005838" class="icon" viewBox="0 0 1024 1024" version="1.1" xmlns="http://www.w3.org/2000/svg" p-id="8704" xmlns:xlink="http://www.w3.org/1999/xlink" width="200" height="200"><path d="M678.4 573.866667L366.933333 262.4l2.133334-2.133333-55.466667-104.533334L192 61.866667 57.6 196.266667l93.866667 121.6 104.533333 55.466666 2.133333-2.133333L569.6 682.666667l-46.933333 46.933333 211.2 211.2c40.533333 40.533333 108.8 40.533333 149.333333 0l53.333333-53.333333c40.533333-40.533333 40.533333-108.8 0-149.333334L725.333333 526.933333l-46.933333 46.933334z" p-id="8705" fill="#707070"></path><path d="M906.666667 424.533333c68.266667-68.266667 81.066667-172.8 38.4-256l-138.666667 138.666667-91.733333-91.733333L853.333333 78.933333c-83.2-42.666667-185.6-29.866667-256 38.4-57.6 57.6-74.666667 138.666667-55.466666 211.2l-469.333334 469.333334a70.826667 70.826667 0 0 0 0 100.266666L128 949.333333c27.733333 27.733333 72.533333 27.733333 100.266667 0l469.333333-469.333333c72.533333 21.333333 151.466667 2.133333 209.066667-55.466667z" p-id="8706" fill="#707070"></path></svg>